<svg width="61" height="67" viewBox="0 0 61 67" fill="none" xmlns="http://www.w3.org/2000/svg">
<g style="mix-blend-mode:color-burn" opacity="0.65" filter="url(#filter0_i)">
<path d="M56.1922 56.1789C55.4732 55.4559 54.5317 54.9959 53.5194 54.8729C52.5072 54.7499 51.483 54.9711 50.6117 55.5009C40.5126 61.7175 22.5108 57.211 9.80757 49.8243C9.6262 49.7241 9.41506 49.6918 9.21205 49.7334C9.00904 49.775 8.82751 49.8877 8.70018 50.0512C8.57286 50.2147 8.50809 50.4183 8.5175 50.6253C8.5269 50.8323 8.60983 51.0292 8.75146 51.1804L8.7875 51.2225C18.2504 60.6854 39.3905 69.4223 53.3299 66.2659C54.3705 66.0206 55.3267 65.5016 56.0994 64.7628C56.8722 64.024 57.4336 63.0921 57.7254 62.0636C58.0173 61.0351 58.029 59.9473 57.7595 58.9127C57.4899 57.8781 56.9489 56.9343 56.1922 56.1789Z" fill="url(#paint0_linear)"/>
</g>
<g style="mix-blend-mode:color-burn" opacity="0.65" filter="url(#filter1_i)">
<path d="M51.2296 8.79224L51.1817 8.74422C50.9802 8.56611 50.7247 8.46084 50.4563 8.44526C50.1878 8.42967 49.9219 8.50466 49.7012 8.65827C49.4805 8.81187 49.3177 9.03517 49.2391 9.29231C49.1604 9.54946 49.1704 9.82558 49.2674 10.0764C51.2169 14.8115 51.9238 19.9663 51.321 25.0514C50.7182 30.1365 48.8256 34.9832 45.8231 39.1313C45.0379 40.222 44.6671 41.5567 44.7771 42.8961C44.887 44.2356 45.4706 45.492 46.4231 46.44C47.071 47.0879 47.8587 47.5788 48.7257 47.8751C49.5928 48.1714 50.5161 48.2653 51.425 48.1494C52.3339 48.0336 53.2042 47.7111 53.9692 47.2067C54.7341 46.7024 55.3735 46.0296 55.8381 45.2399C59.2176 39.5129 60.5988 32.8255 59.7647 26.2282C58.9305 19.631 55.9282 13.4978 51.2296 8.79224Z" fill="url(#paint1_linear)"/>
</g>
<g style="mix-blend-mode:color-burn" opacity="0.65" filter="url(#filter2_i)">
<path d="M34.254 34.2467C37.9926 30.5071 40.6766 25.8458 42.0338 20.7351C43.3911 15.6243 43.3734 10.2456 41.9828 5.14381C41.7164 4.16681 41.2 3.27611 40.4844 2.55953C39.7689 1.84294 38.879 1.32522 37.9024 1.0574C32.7983 -0.334761 27.4169 -0.352545 22.3038 1.00583C17.1906 2.3642 12.5276 5.05044 8.78747 8.79218C4.82983 12.7499 2.05817 17.7357 0.785693 23.1861C-0.48678 28.6366 -0.209324 34.3343 1.58675 39.6353C2.09338 41.1401 3.17086 42.3856 4.58705 43.1036C14.6861 48.2461 27.1613 51.4024 36.4382 49.2782C40.9867 48.2401 42.5348 42.5156 39.2345 39.2152L34.254 34.2467ZM24.7551 25.0658C23.6181 26.2045 22.2229 27.0518 20.6882 27.5355C19.1534 28.0192 17.5246 28.1251 15.9402 27.8441C15.3292 27.739 14.7657 27.4472 14.3273 27.0087C13.8888 26.5703 13.597 26.0069 13.4919 25.3958C13.2109 23.8114 13.3168 22.1826 13.8005 20.6478C14.2842 19.1131 15.1315 17.7179 16.2702 16.5809C17.4066 15.4414 18.8017 14.5936 20.3366 14.1098C21.8715 13.626 23.5007 13.5206 25.0851 13.8027C25.6951 13.9089 26.2572 14.2012 26.6944 14.6395C27.1317 15.0779 27.4226 15.6407 27.5273 16.2509C27.8111 17.8349 27.7072 19.464 27.2244 20.9991C26.7417 22.5341 25.8944 23.9294 24.7551 25.0658Z" fill="url(#paint2_linear)"/>
</g>
<path opacity="0.3" d="M56.015 56.3552L56.0156 56.3558C56.7407 57.0797 57.2592 57.9842 57.5176 58.9757C57.7759 59.9672 57.7646 61.0097 57.4849 61.9954C57.2052 62.981 56.6672 63.8741 55.9267 64.5821C55.1864 65.2899 54.2705 65.7871 53.2736 66.0224C46.3703 67.5851 37.6536 66.206 29.4652 63.2414C21.283 60.279 13.6704 55.7489 8.97101 51.0524L8.9412 51.0177L8.94138 51.0175L8.93396 51.0096C8.83306 50.9018 8.77395 50.7615 8.76724 50.6139C8.76054 50.4664 8.8067 50.3213 8.89743 50.2048C8.98817 50.0883 9.11755 50.008 9.26223 49.9783C9.40608 49.9488 9.55567 49.9714 9.68445 50.0419C16.0582 53.7477 23.7612 56.7318 31.1436 58.0102C38.5193 59.2874 45.617 58.8687 50.7421 55.7141C51.5653 55.2138 52.533 55.0049 53.4893 55.1211C54.4458 55.2373 55.3355 55.672 56.015 56.3552Z" stroke="#E18401" stroke-opacity="0.5" stroke-width="0.5"/>
<path opacity="0.3" d="M46.5999 46.2632L46.5995 46.2628C45.6891 45.3567 45.1313 44.1559 45.0262 42.8757C44.9212 41.5957 45.2755 40.3201 46.0257 39.2777C49.0532 35.0951 50.9614 30.2082 51.5692 25.0808C52.177 19.9543 51.4645 14.7576 49.4997 9.98382C49.4237 9.7859 49.4161 9.56822 49.4781 9.36544C49.5404 9.16186 49.6693 8.98508 49.844 8.86347C50.0187 8.74187 50.2292 8.6825 50.4418 8.69484C50.6519 8.70704 50.852 8.78863 51.0106 8.92672L51.0527 8.96889C55.7122 13.6352 58.6894 19.7173 59.5166 26.2596C60.3438 32.8019 58.9742 39.4336 55.6228 45.1128L55.6227 45.1131C55.1774 45.8699 54.5647 46.5147 53.8316 46.998C53.0985 47.4813 52.2644 47.7904 51.3934 47.9014C50.5223 48.0125 49.6375 47.9225 48.8066 47.6386C47.9757 47.3546 47.2208 46.8841 46.5999 46.2632Z" stroke="#E18401" stroke-opacity="0.5" stroke-width="0.5"/>
<path opacity="0.3" d="M24.932 25.2424C23.7666 26.4097 22.3365 27.2781 20.7633 27.774C19.1904 28.2697 17.5211 28.3782 15.8973 28.0904C15.2356 27.9764 14.6253 27.6603 14.1505 27.1855C13.6757 26.7107 13.3596 26.1005 13.2456 25.4389C12.9578 23.815 13.0663 22.1456 13.5621 20.5727C14.0579 18.9997 14.9262 17.5696 16.0933 16.4043C17.2581 15.2362 18.6882 14.3672 20.2615 13.8714C21.8347 13.3755 23.5045 13.2675 25.1285 13.5565M24.932 25.2424L25.0851 13.8027M24.932 25.2424C26.0997 24.0776 26.9681 22.6475 27.4629 21.0741C27.9577 19.5008 28.0643 17.8311 27.7736 16.2077M24.932 25.2424L27.5273 16.2509M25.1285 13.5565C25.1286 13.5565 25.1288 13.5565 25.1289 13.5565L25.0851 13.8027M25.1285 13.5565C25.1283 13.5564 25.1282 13.5564 25.128 13.5564L25.0851 13.8027M25.1285 13.5565C25.7891 13.6716 26.3978 13.9883 26.8714 14.463C27.3449 14.9376 27.66 15.547 27.7736 16.2077M25.0851 13.8027C25.6951 13.9089 26.2572 14.2012 26.6944 14.6395C27.1317 15.0779 27.4226 15.6407 27.5273 16.2509M27.7736 16.2077C27.7735 16.2074 27.7735 16.2071 27.7734 16.2068L27.5273 16.2509M27.7736 16.2077C27.7736 16.208 27.7737 16.2083 27.7737 16.2086L27.5273 16.2509M34.0772 34.07L33.9002 34.247L34.0774 34.4237L39.0577 39.392C39.0578 39.3921 39.0579 39.3922 39.0579 39.3922C42.2248 42.5594 40.7312 48.042 36.3826 49.0345L36.3824 49.0345C27.1884 51.1398 14.7771 48.0119 4.70049 42.8808L4.7001 42.8806C3.34238 42.1923 2.30939 40.9982 1.82368 39.5555L1.82353 39.5551C0.0424207 34.2982 -0.232724 28.648 1.02915 23.243C2.29102 17.838 5.03959 12.8937 8.96425 8.96896L8.96428 8.96892C12.6733 5.25836 17.2974 2.5945 22.368 1.24745C27.4385 -0.0996031 32.7751 -0.0819713 37.8366 1.29857C38.7711 1.55493 39.6228 2.0504 40.3075 2.73617C40.9924 3.42201 41.4866 4.27449 41.7416 5.20955C43.1206 10.2688 43.1381 15.6027 41.7922 20.6709C40.4462 25.7391 37.7847 30.3615 34.0772 34.07Z" stroke="#E18401" stroke-width="0.5"/>
<defs>
<filter id="filter0_i" x="8.5166" y="49.7157" width="49.4367" height="18.2074" filterUnits="userSpaceOnUse" color-interpolation-filters="sRGB">
<feFlood flood-opacity="0" result="BackgroundImageFix"/>
<feBlend mode="normal" in="SourceGraphic" in2="BackgroundImageFix" result="shape"/>
<feColorMatrix in="SourceAlpha" type="matrix" values="0 0 0 0 0 0 0 0 0 0 0 0 0 0 0 0 0 0 127 0" result="hardAlpha"/>
<feOffset dy="2"/>
<feGaussianBlur stdDeviation="0.5"/>
<feComposite in2="hardAlpha" operator="arithmetic" k2="-1" k3="1"/>
<feColorMatrix type="matrix" values="0 0 0 0 0 0 0 0 0 0 0 0 0 0 0 0 0 0 0.25 0"/>
<feBlend mode="normal" in2="shape" result="effect1_innerShadow"/>
</filter>
<filter id="filter1_i" x="44.7581" y="8.44324" width="15.2436" height="40.7543" filterUnits="userSpaceOnUse" color-interpolation-filters="sRGB">
<feFlood flood-opacity="0" result="BackgroundImageFix"/>
<feBlend mode="normal" in="SourceGraphic" in2="BackgroundImageFix" result="shape"/>
<feColorMatrix in="SourceAlpha" type="matrix" values="0 0 0 0 0 0 0 0 0 0 0 0 0 0 0 0 0 0 127 0" result="hardAlpha"/>
<feOffset dy="2"/>
<feGaussianBlur stdDeviation="0.5"/>
<feComposite in2="hardAlpha" operator="arithmetic" k2="-1" k3="1"/>
<feColorMatrix type="matrix" values="0 0 0 0 0 0 0 0 0 0 0 0 0 0 0 0 0 0 0.25 0"/>
<feBlend mode="normal" in2="shape" result="effect1_innerShadow"/>
</filter>
<filter id="filter2_i" x="0" y="0" width="43.0389" height="50.9488" filterUnits="userSpaceOnUse" color-interpolation-filters="sRGB">
<feFlood flood-opacity="0" result="BackgroundImageFix"/>
<feBlend mode="normal" in="SourceGraphic" in2="BackgroundImageFix" result="shape"/>
<feColorMatrix in="SourceAlpha" type="matrix" values="0 0 0 0 0 0 0 0 0 0 0 0 0 0 0 0 0 0 127 0" result="hardAlpha"/>
<feOffset dy="2"/>
<feGaussianBlur stdDeviation="0.5"/>
<feComposite in2="hardAlpha" operator="arithmetic" k2="-1" k3="1"/>
<feColorMatrix type="matrix" values="0 0 0 0 0 0 0 0 0 0 0 0 0 0 0 0 0 0 0.25 0"/>
<feBlend mode="normal" in2="shape" result="effect1_innerShadow"/>
</filter>
<linearGradient id="paint0_linear" x1="33.235" y1="49.7157" x2="33.235" y2="66.9231" gradientUnits="userSpaceOnUse">
<stop stop-color="#FFCC00"/>
<stop offset="1" stop-color="#FF9500"/>
</linearGradient>
<linearGradient id="paint1_linear" x1="52.3799" y1="8.44324" x2="52.3799" y2="48.1976" gradientUnits="userSpaceOnUse">
<stop stop-color="#FFCC00"/>
<stop offset="1" stop-color="#FF9500"/>
</linearGradient>
<linearGradient id="paint2_linear" x1="21.5195" y1="0" x2="21.5195" y2="49.9488" gradientUnits="userSpaceOnUse">
<stop stop-color="#FFCC00"/>
<stop offset="1" stop-color="#FF9500"/>
</linearGradient>
</defs>
</svg>
