<svg width="65" height="56" viewBox="0 0 65 56" fill="none" xmlns="http://www.w3.org/2000/svg">
<g style="mix-blend-mode:color-burn" opacity="0.7" filter="url(#filter0_i)">
<path d="M55.7143 0H9.28571C6.82381 0.00268829 4.46352 0.981865 2.72269 2.72269C0.981865 4.46352 0.00268829 6.82381 0 9.28571V46.4286C0.00268829 48.8905 0.981865 51.2508 2.72269 52.9916C4.46352 54.7324 6.82381 55.7116 9.28571 55.7143H55.7143C58.1762 55.7116 60.5365 54.7324 62.2773 52.9916C64.0181 51.2508 64.9973 48.8905 65 46.4286V9.28571C64.9973 6.82381 64.0181 4.46352 62.2773 2.72269C60.5365 0.981865 58.1762 0.00268829 55.7143 0ZM44.1071 9.28571C45.4845 9.28571 46.831 9.69416 47.9763 10.4594C49.1216 11.2247 50.0142 12.3123 50.5413 13.5849C51.0684 14.8574 51.2063 16.2577 50.9376 17.6087C50.6689 18.9596 50.0056 20.2005 49.0316 21.1745C48.0577 22.1485 46.8167 22.8118 45.4658 23.0805C44.1149 23.3492 42.7146 23.2113 41.442 22.6842C40.1695 22.1571 39.0818 21.2644 38.3165 20.1192C37.5513 18.9739 37.1429 17.6274 37.1429 16.25C37.1448 14.4035 37.8791 12.6333 39.1848 11.3276C40.4904 10.022 42.2607 9.28763 44.1071 9.28571ZM9.28571 51.0714C8.05435 51.0714 6.87342 50.5823 6.00272 49.7116C5.13201 48.8409 4.64286 47.6599 4.64286 46.4286V36.6162L18.4031 24.3852C19.7308 23.2077 21.4574 22.5807 23.2312 22.6319C25.005 22.6831 26.6925 23.4087 27.95 24.6608L37.3735 34.0641L20.3662 51.0714H9.28571ZM60.3571 46.4286C60.3571 47.6599 59.868 48.8409 58.9973 49.7116C58.1266 50.5823 56.9456 51.0714 55.7143 51.0714H26.9329L44.5497 33.4547C45.7969 32.394 47.3798 31.8096 49.0171 31.8054C50.6544 31.8011 52.2402 32.3773 53.493 33.4315L60.3571 39.1509V46.4286Z" fill="url(#paint0_linear)"/>
</g>
<g style="mix-blend-mode:darken">
<path d="M44.1071 9.03571H44.1069C42.1942 9.0377 40.3605 9.79839 39.008 11.1508C37.6555 12.5033 36.8948 14.3371 36.8929 16.2497V16.25C36.8929 17.6769 37.316 19.0717 38.1087 20.258C38.9014 21.4444 40.0281 22.3691 41.3464 22.9151C42.6646 23.4612 44.1151 23.604 45.5146 23.3257C46.914 23.0473 48.1995 22.3602 49.2084 21.3513C50.2174 20.3423 50.9044 19.0569 51.1828 17.6574C51.4612 16.258 51.3183 14.8075 50.7723 13.4892C50.2262 12.171 49.3016 11.0443 48.1152 10.2515C46.9288 9.45883 45.534 9.03571 44.1071 9.03571ZM4.47677 36.4293L4.39286 36.5039V36.6162V46.4286C4.39286 47.7262 4.90835 48.9708 5.82594 49.8883C6.74353 50.8059 7.98805 51.3214 9.28571 51.3214H20.3662H20.4697L20.543 51.2482L37.5503 34.2408L37.7273 34.0639L37.5501 33.8871L28.1266 24.4839L28.1264 24.4837C26.8238 23.1867 25.0758 22.4351 23.2384 22.382C21.401 22.329 19.6125 22.9784 18.2372 24.1981L18.237 24.1983L4.47677 36.4293ZM26.7561 50.8946L26.3294 51.3214H26.9329H55.7143C57.012 51.3214 58.2565 50.8059 59.1741 49.8883C60.0916 48.9708 60.6071 47.7262 60.6071 46.4286V39.1509V39.0338L60.5172 38.9588L53.6539 33.2402C53.6538 33.2401 53.6537 33.24 53.6535 33.2399C52.3556 32.1478 50.7127 31.551 49.0164 31.5554C47.32 31.5598 45.68 32.1652 44.3877 33.2642L44.38 33.2708L44.3729 33.2779L26.7561 50.8946ZM9.28585 0.25H55.7141C58.1098 0.252652 60.4066 1.20549 62.1005 2.89947C63.7945 4.59348 64.7474 6.8903 64.75 9.28599V46.4283C64.7474 48.824 63.7945 51.1208 62.1005 52.8148C60.4065 54.5088 58.1097 55.4617 55.714 55.4643H9.28599C6.8903 55.4617 4.59348 54.5088 2.89947 52.8148C1.20549 51.1208 0.252652 48.8241 0.25 46.4284V9.28585C0.252652 6.89021 1.20549 4.59345 2.89947 2.89947C4.59345 1.20549 6.89021 0.252652 9.28585 0.25Z" stroke="#E18401" stroke-opacity="0.5" stroke-width="0.5"/>
</g>
<defs>
<filter id="filter0_i" x="0" y="0" width="65" height="56.7143" filterUnits="userSpaceOnUse" color-interpolation-filters="sRGB">
<feFlood flood-opacity="0" result="BackgroundImageFix"/>
<feBlend mode="normal" in="SourceGraphic" in2="BackgroundImageFix" result="shape"/>
<feColorMatrix in="SourceAlpha" type="matrix" values="0 0 0 0 0 0 0 0 0 0 0 0 0 0 0 0 0 0 127 0" result="hardAlpha"/>
<feOffset dy="2"/>
<feGaussianBlur stdDeviation="0.5"/>
<feComposite in2="hardAlpha" operator="arithmetic" k2="-1" k3="1"/>
<feColorMatrix type="matrix" values="0 0 0 0 0 0 0 0 0 0 0 0 0 0 0 0 0 0 0.25 0"/>
<feBlend mode="normal" in2="shape" result="effect1_innerShadow"/>
</filter>
<linearGradient id="paint0_linear" x1="32.5" y1="0" x2="32.5" y2="55.7143" gradientUnits="userSpaceOnUse">
<stop stop-color="#FFCC00"/>
<stop offset="1" stop-color="#FF9500"/>
</linearGradient>
</defs>
</svg>
