<svg width="75" height="75" viewBox="0 0 75 75" fill="none" xmlns="http://www.w3.org/2000/svg">
<g style="mix-blend-mode:color-burn" opacity="0.3" filter="url(#filter0_i)">
<path d="M74.0932 25.8458L67.1976 18.9499C66.6413 18.401 65.8995 18.0805 65.1186 18.0516C64.3376 18.0226 63.5741 18.2874 62.9787 18.7936C62.0595 19.5761 60.8799 19.9846 59.6736 19.9383C58.4674 19.892 57.3225 19.3942 56.466 18.5436C55.6158 17.6871 55.1183 16.5425 55.072 15.3365C55.0257 14.1306 55.434 12.9512 56.216 12.032C56.7221 11.4366 56.9869 10.6731 56.958 9.8921C56.929 9.1111 56.6085 8.36927 56.0597 7.81291L49.1579 0.909149C48.5746 0.326971 47.7842 0 46.9601 0C46.1361 0 45.3457 0.326971 44.7624 0.909149L33.7698 11.9008C33.0911 12.5819 32.5793 13.4109 32.2744 14.3229C32.215 14.4982 32.1161 14.6575 31.9852 14.7884C31.8543 14.9193 31.695 15.0183 31.5197 15.0776C30.6074 15.3825 29.7783 15.895 29.0977 16.5746L0.909101 44.7647C0.326953 45.348 0 46.1385 0 46.9626C0 47.7867 0.326953 48.5772 0.909101 49.1604L7.8125 56.0564C8.36884 56.6053 9.11062 56.9258 9.89158 56.9547C10.6725 56.9836 11.436 56.7189 12.0314 56.2127C12.9485 55.4239 14.1297 55.0108 15.3384 55.0561C16.5472 55.1015 17.6941 55.6021 18.5494 56.4574C19.4047 57.3128 19.9052 58.4598 19.9506 59.6686C19.996 60.8774 19.5829 62.0587 18.7942 62.9758C18.288 63.5712 18.0233 64.3347 18.0522 65.1157C18.0811 65.8967 18.4016 66.6385 18.9504 67.1949L25.846 74.0909C26.4293 74.673 27.2197 75 28.0438 75C28.8678 75 29.6582 74.673 30.2415 74.0909L58.4301 45.9008C59.1094 45.2204 59.6218 44.3919 59.927 43.4802C59.9862 43.3043 60.0852 43.1445 60.2164 43.0133C60.3476 42.8821 60.5074 42.783 60.6833 42.7239C61.5947 42.419 62.4232 41.9071 63.1037 41.2285L74.0948 30.2353C74.6748 29.652 75.0003 28.8628 75 28.0402C74.9997 27.2176 74.6737 26.4286 74.0932 25.8458ZM38.409 21.2126C38.1769 21.4448 37.9012 21.629 37.5979 21.7547C37.2945 21.8804 36.9693 21.9451 36.641 21.9451C36.3126 21.9451 35.9875 21.8804 35.6841 21.7547C35.3807 21.629 35.1051 21.4448 34.8729 21.2126L33.0744 19.414C32.617 18.9427 32.3633 18.3104 32.3683 17.6536C32.3732 16.9969 32.6364 16.3685 33.1009 15.9041C33.5653 15.4398 34.1939 15.177 34.8506 15.1723C35.5073 15.1676 36.1395 15.4216 36.6105 15.8793L38.409 17.6763C38.6412 17.9085 38.8254 18.1841 38.9511 18.4875C39.0768 18.7909 39.1415 19.1161 39.1415 19.4444C39.1415 19.7728 39.0768 20.098 38.9511 20.4014C38.8254 20.7047 38.6412 20.9804 38.409 21.2126ZM45.2843 28.0882C44.8155 28.5567 44.1798 28.8199 43.517 28.8199C42.8542 28.8199 42.2186 28.5567 41.7498 28.0882L40.031 26.3693C39.7988 26.1371 39.6146 25.8614 39.4889 25.5581C39.3633 25.2547 39.2986 24.9295 39.2986 24.6012C39.2986 24.2728 39.3633 23.9476 39.4889 23.6443C39.6146 23.3409 39.7988 23.0652 40.031 22.833C40.4999 22.3641 41.1358 22.1006 41.799 22.1006C42.1273 22.1006 42.4525 22.1653 42.7558 22.291C43.0592 22.4167 43.3349 22.6008 43.567 22.833L45.2859 24.5519C45.5189 24.7841 45.7038 25.06 45.83 25.3637C45.9562 25.6675 46.0213 25.9931 46.0214 26.3221C46.0216 26.651 45.9568 26.9768 45.8309 27.2806C45.7049 27.5845 45.5202 27.8605 45.2874 28.0929L45.2843 28.0882ZM52.1596 34.9638C51.9274 35.1961 51.6518 35.3803 51.3484 35.506C51.045 35.6316 50.7199 35.6963 50.3915 35.6963C50.0632 35.6963 49.738 35.6316 49.4346 35.506C49.1313 35.3803 48.8556 35.1961 48.6235 34.9638L46.9047 33.2449C46.4472 32.7737 46.1936 32.1413 46.1985 31.4846C46.2034 30.8278 46.4666 30.1994 46.9311 29.7351C47.3956 29.2708 48.0241 29.0079 48.6808 29.0033C49.3375 28.9986 49.9697 29.2526 50.4407 29.7102L52.1596 31.4291C52.3932 31.6609 52.5788 31.9365 52.7057 32.2402C52.8326 32.5439 52.8983 32.8696 52.8991 33.1988C52.8998 33.5279 52.8355 33.8539 52.71 34.1582C52.5844 34.4624 52.4 34.7388 52.1674 34.9716L52.1596 34.9638ZM59.102 41.9238C58.8699 42.1561 58.5942 42.3403 58.2909 42.466C57.9875 42.5917 57.6623 42.6563 57.334 42.6563C57.0056 42.6563 56.6805 42.5917 56.3771 42.466C56.0737 42.3403 55.7981 42.1561 55.5659 41.9238L53.7784 40.1268C53.5413 39.8953 53.3526 39.619 53.2232 39.3139C53.0938 39.0089 53.0264 38.6811 53.0248 38.3498C53.0232 38.0184 53.0875 37.69 53.214 37.3837C53.3404 37.0774 53.5265 36.7993 53.7614 36.5656C53.9962 36.3319 54.2752 36.1471 54.5821 36.0222C54.889 35.8972 55.2177 35.8345 55.549 35.8377C55.8803 35.8409 56.2077 35.9099 56.5121 36.0408C56.8166 36.1716 57.0919 36.3617 57.3223 36.5999L59.1114 38.3954C59.3435 38.6277 59.5276 38.9034 59.6531 39.2068C59.7787 39.5103 59.8432 39.8355 59.8431 40.1638C59.8429 40.4922 59.7781 40.8174 59.6523 41.1207C59.5265 41.424 59.3422 41.6996 59.1098 41.9317L59.102 41.9238Z" fill="url(#paint0_linear)"/>
</g>
<g style="mix-blend-mode:darken">
<mask id="path-2-inside-1" fill="white">
<path d="M74.0932 25.8458L67.1976 18.9499C66.6413 18.401 65.8995 18.0805 65.1186 18.0516C64.3376 18.0226 63.5741 18.2874 62.9787 18.7936C62.0595 19.5761 60.8799 19.9846 59.6736 19.9383C58.4674 19.892 57.3225 19.3942 56.466 18.5436C55.6158 17.6871 55.1183 16.5425 55.072 15.3365C55.0257 14.1306 55.434 12.9512 56.216 12.032C56.7221 11.4366 56.9869 10.6731 56.958 9.8921C56.929 9.1111 56.6085 8.36927 56.0597 7.81291L49.1579 0.909149C48.5746 0.326971 47.7842 0 46.9601 0C46.1361 0 45.3457 0.326971 44.7624 0.909149L33.7698 11.9008C33.0911 12.5819 32.5793 13.4109 32.2744 14.3229C32.215 14.4982 32.1161 14.6575 31.9852 14.7884C31.8543 14.9193 31.695 15.0183 31.5197 15.0776C30.6074 15.3825 29.7783 15.895 29.0977 16.5746L0.909101 44.7647C0.326953 45.348 0 46.1385 0 46.9626C0 47.7867 0.326953 48.5772 0.909101 49.1604L7.8125 56.0564C8.36884 56.6053 9.11062 56.9258 9.89158 56.9547C10.6725 56.9836 11.436 56.7189 12.0314 56.2127C12.9485 55.4239 14.1297 55.0108 15.3384 55.0561C16.5472 55.1015 17.6941 55.6021 18.5494 56.4574C19.4047 57.3128 19.9052 58.4598 19.9506 59.6686C19.996 60.8774 19.5829 62.0587 18.7942 62.9758C18.288 63.5712 18.0233 64.3347 18.0522 65.1157C18.0811 65.8967 18.4016 66.6385 18.9504 67.1949L25.846 74.0909C26.4293 74.673 27.2197 75 28.0438 75C28.8678 75 29.6582 74.673 30.2415 74.0909L58.4301 45.9008C59.1094 45.2204 59.6218 44.3919 59.927 43.4802C59.9862 43.3043 60.0852 43.1445 60.2164 43.0133C60.3476 42.8821 60.5074 42.783 60.6833 42.7239C61.5947 42.419 62.4232 41.9071 63.1037 41.2285L74.0948 30.2353C74.6748 29.652 75.0003 28.8628 75 28.0402C74.9997 27.2176 74.6737 26.4286 74.0932 25.8458ZM38.409 21.2126C38.1769 21.4448 37.9012 21.629 37.5979 21.7547C37.2945 21.8804 36.9693 21.9451 36.641 21.9451C36.3126 21.9451 35.9875 21.8804 35.6841 21.7547C35.3807 21.629 35.1051 21.4448 34.8729 21.2126L33.0744 19.414C32.617 18.9427 32.3633 18.3104 32.3683 17.6536C32.3732 16.9969 32.6364 16.3685 33.1009 15.9041C33.5653 15.4398 34.1939 15.177 34.8506 15.1723C35.5073 15.1676 36.1395 15.4216 36.6105 15.8793L38.409 17.6763C38.6412 17.9085 38.8254 18.1841 38.9511 18.4875C39.0768 18.7909 39.1415 19.1161 39.1415 19.4444C39.1415 19.7728 39.0768 20.098 38.9511 20.4014C38.8254 20.7047 38.6412 20.9804 38.409 21.2126ZM45.2843 28.0882C44.8155 28.5567 44.1798 28.8199 43.517 28.8199C42.8542 28.8199 42.2186 28.5567 41.7498 28.0882L40.031 26.3693C39.7988 26.1371 39.6146 25.8614 39.4889 25.5581C39.3633 25.2547 39.2986 24.9295 39.2986 24.6012C39.2986 24.2728 39.3633 23.9476 39.4889 23.6443C39.6146 23.3409 39.7988 23.0652 40.031 22.833C40.4999 22.3641 41.1358 22.1006 41.799 22.1006C42.1273 22.1006 42.4525 22.1653 42.7558 22.291C43.0592 22.4167 43.3349 22.6008 43.567 22.833L45.2859 24.5519C45.5189 24.7841 45.7038 25.06 45.83 25.3637C45.9562 25.6675 46.0213 25.9931 46.0214 26.3221C46.0216 26.651 45.9568 26.9768 45.8309 27.2806C45.7049 27.5845 45.5202 27.8605 45.2874 28.0929L45.2843 28.0882ZM52.1596 34.9638C51.9274 35.1961 51.6518 35.3803 51.3484 35.506C51.045 35.6316 50.7199 35.6963 50.3915 35.6963C50.0632 35.6963 49.738 35.6316 49.4346 35.506C49.1313 35.3803 48.8556 35.1961 48.6235 34.9638L46.9047 33.2449C46.4472 32.7737 46.1936 32.1413 46.1985 31.4846C46.2034 30.8278 46.4666 30.1994 46.9311 29.7351C47.3956 29.2708 48.0241 29.0079 48.6808 29.0033C49.3375 28.9986 49.9697 29.2526 50.4407 29.7102L52.1596 31.4291C52.3932 31.6609 52.5788 31.9365 52.7057 32.2402C52.8326 32.5439 52.8983 32.8696 52.8991 33.1988C52.8998 33.5279 52.8355 33.8539 52.71 34.1582C52.5844 34.4624 52.4 34.7388 52.1674 34.9716L52.1596 34.9638ZM59.102 41.9238C58.8699 42.1561 58.5942 42.3403 58.2909 42.466C57.9875 42.5917 57.6623 42.6563 57.334 42.6563C57.0056 42.6563 56.6805 42.5917 56.3771 42.466C56.0737 42.3403 55.7981 42.1561 55.5659 41.9238L53.7784 40.1268C53.5413 39.8953 53.3526 39.619 53.2232 39.3139C53.0938 39.0089 53.0264 38.6811 53.0248 38.3498C53.0232 38.0184 53.0875 37.69 53.214 37.3837C53.3404 37.0774 53.5265 36.7993 53.7614 36.5656C53.9962 36.3319 54.2752 36.1471 54.5821 36.0222C54.889 35.8972 55.2177 35.8345 55.549 35.8377C55.8803 35.8409 56.2077 35.9099 56.5121 36.0408C56.8166 36.1716 57.0919 36.3617 57.3223 36.5999L59.1114 38.3954C59.3435 38.6277 59.5276 38.9034 59.6531 39.2068C59.7787 39.5103 59.8432 39.8355 59.8431 40.1638C59.8429 40.4922 59.7781 40.8174 59.6523 41.1207C59.5265 41.424 59.3422 41.6996 59.1098 41.9317L59.102 41.9238Z"/>
</mask>
<path d="M74.0932 25.8458L67.1976 18.9499C66.6413 18.401 65.8995 18.0805 65.1186 18.0516C64.3376 18.0226 63.5741 18.2874 62.9787 18.7936C62.0595 19.5761 60.8799 19.9846 59.6736 19.9383C58.4674 19.892 57.3225 19.3942 56.466 18.5436C55.6158 17.6871 55.1183 16.5425 55.072 15.3365C55.0257 14.1306 55.434 12.9512 56.216 12.032C56.7221 11.4366 56.9869 10.6731 56.958 9.8921C56.929 9.1111 56.6085 8.36927 56.0597 7.81291L49.1579 0.909149C48.5746 0.326971 47.7842 0 46.9601 0C46.1361 0 45.3457 0.326971 44.7624 0.909149L33.7698 11.9008C33.0911 12.5819 32.5793 13.4109 32.2744 14.3229C32.215 14.4982 32.1161 14.6575 31.9852 14.7884C31.8543 14.9193 31.695 15.0183 31.5197 15.0776C30.6074 15.3825 29.7783 15.895 29.0977 16.5746L0.909101 44.7647C0.326953 45.348 0 46.1385 0 46.9626C0 47.7867 0.326953 48.5772 0.909101 49.1604L7.8125 56.0564C8.36884 56.6053 9.11062 56.9258 9.89158 56.9547C10.6725 56.9836 11.436 56.7189 12.0314 56.2127C12.9485 55.4239 14.1297 55.0108 15.3384 55.0561C16.5472 55.1015 17.6941 55.6021 18.5494 56.4574C19.4047 57.3128 19.9052 58.4598 19.9506 59.6686C19.996 60.8774 19.5829 62.0587 18.7942 62.9758C18.288 63.5712 18.0233 64.3347 18.0522 65.1157C18.0811 65.8967 18.4016 66.6385 18.9504 67.1949L25.846 74.0909C26.4293 74.673 27.2197 75 28.0438 75C28.8678 75 29.6582 74.673 30.2415 74.0909L58.4301 45.9008C59.1094 45.2204 59.6218 44.3919 59.927 43.4802C59.9862 43.3043 60.0852 43.1445 60.2164 43.0133C60.3476 42.8821 60.5074 42.783 60.6833 42.7239C61.5947 42.419 62.4232 41.9071 63.1037 41.2285L74.0948 30.2353C74.6748 29.652 75.0003 28.8628 75 28.0402C74.9997 27.2176 74.6737 26.4286 74.0932 25.8458ZM38.409 21.2126C38.1769 21.4448 37.9012 21.629 37.5979 21.7547C37.2945 21.8804 36.9693 21.9451 36.641 21.9451C36.3126 21.9451 35.9875 21.8804 35.6841 21.7547C35.3807 21.629 35.1051 21.4448 34.8729 21.2126L33.0744 19.414C32.617 18.9427 32.3633 18.3104 32.3683 17.6536C32.3732 16.9969 32.6364 16.3685 33.1009 15.9041C33.5653 15.4398 34.1939 15.177 34.8506 15.1723C35.5073 15.1676 36.1395 15.4216 36.6105 15.8793L38.409 17.6763C38.6412 17.9085 38.8254 18.1841 38.9511 18.4875C39.0768 18.7909 39.1415 19.1161 39.1415 19.4444C39.1415 19.7728 39.0768 20.098 38.9511 20.4014C38.8254 20.7047 38.6412 20.9804 38.409 21.2126ZM45.2843 28.0882C44.8155 28.5567 44.1798 28.8199 43.517 28.8199C42.8542 28.8199 42.2186 28.5567 41.7498 28.0882L40.031 26.3693C39.7988 26.1371 39.6146 25.8614 39.4889 25.5581C39.3633 25.2547 39.2986 24.9295 39.2986 24.6012C39.2986 24.2728 39.3633 23.9476 39.4889 23.6443C39.6146 23.3409 39.7988 23.0652 40.031 22.833C40.4999 22.3641 41.1358 22.1006 41.799 22.1006C42.1273 22.1006 42.4525 22.1653 42.7558 22.291C43.0592 22.4167 43.3349 22.6008 43.567 22.833L45.2859 24.5519C45.5189 24.7841 45.7038 25.06 45.83 25.3637C45.9562 25.6675 46.0213 25.9931 46.0214 26.3221C46.0216 26.651 45.9568 26.9768 45.8309 27.2806C45.7049 27.5845 45.5202 27.8605 45.2874 28.0929L45.2843 28.0882ZM52.1596 34.9638C51.9274 35.1961 51.6518 35.3803 51.3484 35.506C51.045 35.6316 50.7199 35.6963 50.3915 35.6963C50.0632 35.6963 49.738 35.6316 49.4346 35.506C49.1313 35.3803 48.8556 35.1961 48.6235 34.9638L46.9047 33.2449C46.4472 32.7737 46.1936 32.1413 46.1985 31.4846C46.2034 30.8278 46.4666 30.1994 46.9311 29.7351C47.3956 29.2708 48.0241 29.0079 48.6808 29.0033C49.3375 28.9986 49.9697 29.2526 50.4407 29.7102L52.1596 31.4291C52.3932 31.6609 52.5788 31.9365 52.7057 32.2402C52.8326 32.5439 52.8983 32.8696 52.8991 33.1988C52.8998 33.5279 52.8355 33.8539 52.71 34.1582C52.5844 34.4624 52.4 34.7388 52.1674 34.9716L52.1596 34.9638ZM59.102 41.9238C58.8699 42.1561 58.5942 42.3403 58.2909 42.466C57.9875 42.5917 57.6623 42.6563 57.334 42.6563C57.0056 42.6563 56.6805 42.5917 56.3771 42.466C56.0737 42.3403 55.7981 42.1561 55.5659 41.9238L53.7784 40.1268C53.5413 39.8953 53.3526 39.619 53.2232 39.3139C53.0938 39.0089 53.0264 38.6811 53.0248 38.3498C53.0232 38.0184 53.0875 37.69 53.214 37.3837C53.3404 37.0774 53.5265 36.7993 53.7614 36.5656C53.9962 36.3319 54.2752 36.1471 54.5821 36.0222C54.889 35.8972 55.2177 35.8345 55.549 35.8377C55.8803 35.8409 56.2077 35.9099 56.5121 36.0408C56.8166 36.1716 57.0919 36.3617 57.3223 36.5999L59.1114 38.3954C59.3435 38.6277 59.5276 38.9034 59.6531 39.2068C59.7787 39.5103 59.8432 39.8355 59.8431 40.1638C59.8429 40.4922 59.7781 40.8174 59.6523 41.1207C59.5265 41.424 59.3422 41.6996 59.1098 41.9317L59.102 41.9238Z" stroke="#3B01E1" stroke-opacity="0.2" mask="url(#path-2-inside-1)"/>
</g>
<defs>
<filter id="filter0_i" x="0" y="0" width="75" height="76" filterUnits="userSpaceOnUse" color-interpolation-filters="sRGB">
<feFlood flood-opacity="0" result="BackgroundImageFix"/>
<feBlend mode="normal" in="SourceGraphic" in2="BackgroundImageFix" result="shape"/>
<feColorMatrix in="SourceAlpha" type="matrix" values="0 0 0 0 0 0 0 0 0 0 0 0 0 0 0 0 0 0 127 0" result="hardAlpha"/>
<feOffset dy="2"/>
<feGaussianBlur stdDeviation="0.5"/>
<feComposite in2="hardAlpha" operator="arithmetic" k2="-1" k3="1"/>
<feColorMatrix type="matrix" values="0 0 0 0 0 0 0 0 0 0 0 0 0 0 0 0 0 0 0.25 0"/>
<feBlend mode="normal" in2="shape" result="effect1_innerShadow"/>
</filter>
<linearGradient id="paint0_linear" x1="37.5" y1="0" x2="37.5" y2="75" gradientUnits="userSpaceOnUse">
<stop stop-color="#AF52DE"/>
<stop offset="1" stop-color="#8053ED"/>
</linearGradient>
</defs>
</svg>
